<?xml version="1.0" standalone="no"?>
<!DOCTYPE svg PUBLIC "-//W3C//DTD SVG 20010904//EN"
 "http://www.w3.org/TR/2001/REC-SVG-20010904/DTD/svg10.dtd">
<svg version="1.0" xmlns="http://www.w3.org/2000/svg"
 width="512.000000pt" height="512.000000pt" viewBox="0 0 512.000000 512.000000"
 preserveAspectRatio="xMidYMid meet">

<g transform="translate(0.000000,512.000000) scale(0.100000,-0.100000)"
fill="#000000" stroke="none">
<path d="M2451 4603 c-25 -21 -281 -639 -281 -678 0 -89 124 -123 165 -45 38
74 265 637 265 658 0 13 -13 37 -29 53 -34 34 -87 39 -120 12z"/>
<path d="M3618 4303 c-48 -51 -420 -557 -459 -625 -82 -139 -145 -318 -175
-488 -12 -71 -15 -134 -12 -249 l5 -153 -76 7 c-387 36 -624 260 -706 667 -8
42 -15 91 -15 108 0 21 -9 41 -29 61 l-29 29 -567 0 c-619 0 -610 1 -634 -58
-15 -37 -6 -74 26 -104 25 -23 25 -23 354 -28 l330 -5 -61 -44 c-144 -105
-275 -264 -351 -425 -44 -94 -86 -241 -95 -332 -6 -59 -11 -67 -100 -183 -73
-97 -95 -133 -104 -174 -14 -61 -3 -114 33 -167 15 -23 346 -257 1055 -744
l1033 -711 -385 -5 -384 -5 -26 -24 c-36 -34 -36 -89 0 -125 l27 -26 1032 0
c995 0 1035 1 1109 20 102 26 167 62 226 127 65 71 90 139 90 246 0 70 -4 91
-29 142 -60 125 -185 213 -364 255 -164 39 -282 92 -329 148 -13 15 -63 99
-112 186 -89 158 -89 158 -76 196 17 53 -1 97 -47 116 -18 8 -38 13 -45 12 -6
-2 -31 32 -56 75 -36 63 -42 80 -32 92 7 8 12 31 12 51 0 45 -35 84 -79 87
-28 2 -37 10 -71 72 l-40 69 19 24 c26 34 24 85 -5 118 -18 22 -33 28 -66 29
l-43 1 -63 109 c-53 93 -69 113 -101 127 -33 15 -39 22 -45 60 -20 131 0 320
52 479 56 171 107 257 341 571 191 259 219 301 219 332 0 80 -97 117 -152 59z
m-1584 -957 c27 -106 76 -226 128 -314 46 -79 209 -240 286 -282 34 -19 75
-42 91 -52 20 -11 50 -56 100 -149 39 -73 71 -136 71 -140 0 -4 -8 -10 -17
-13 -10 -3 -99 -28 -198 -56 -244 -69 -262 -76 -281 -112 -30 -58 11 -128 75
-128 20 0 144 31 276 69 217 63 241 68 250 53 5 -9 26 -47 47 -83 l36 -67
-308 -88 -307 -87 -204 148 c-112 81 -208 151 -213 156 -5 4 1 21 13 38 37 52
88 172 105 248 23 101 21 257 -4 363 -33 136 -124 310 -241 456 -11 13 88 72
191 113 41 16 76 29 77 27 2 -1 14 -46 27 -100z m-388 -222 c144 -194 201
-401 163 -586 -12 -59 -84 -218 -99 -218 -5 0 -99 66 -209 146 l-200 145 6 47
c17 130 91 315 168 418 35 45 105 124 112 124 2 0 28 -34 59 -76z m1509 -555
c32 -59 31 -65 -5 -73 -99 -19 -109 -158 -14 -182 15 -4 53 1 86 10 33 9 62
15 63 14 1 -2 19 -33 39 -70 l37 -67 -45 -12 c-83 -21 -120 -95 -76 -152 27
-34 68 -41 131 -23 80 24 83 23 124 -50 41 -73 39 -78 -22 -90 -100 -19 -113
-156 -17 -180 15 -4 57 2 99 14 l74 20 65 -117 65 -116 -31 -9 c-45 -14 -168
7 -235 40 -116 56 -146 98 -393 554 -123 228 -239 442 -257 475 l-32 60 159 0
159 0 26 -46z m-1032 -783 c487 -354 912 -662 944 -684 140 -95 361 -197 530
-245 212 -60 354 -76 682 -77 l234 0 -19 -21 c-53 -58 -147 -79 -363 -79 -416
0 -798 48 -920 116 -24 13 -509 344 -1077 735 -749 515 -1034 716 -1034 730 0
22 119 181 130 174 5 -3 406 -295 893 -649z m981 -92 c90 -164 140 -225 237
-290 132 -87 285 -120 447 -95 l73 11 47 -39 c90 -74 174 -113 354 -162 126
-34 189 -63 237 -111 l34 -33 -54 -7 c-30 -3 -122 -6 -205 -7 -545 -4 -837 93
-1297 429 -64 47 -117 88 -117 91 0 4 20 12 45 18 51 13 81 38 91 76 10 38
-14 85 -52 101 -28 12 -43 10 -142 -16 -60 -16 -116 -32 -124 -35 -17 -7 -203
125 -191 135 4 4 118 39 253 77 l245 70 21 -36 c11 -20 56 -99 98 -177z"/>
<path d="M421 3045 c-41 -35 -44 -93 -6 -130 l24 -25 266 0 266 0 24 25 c33
32 33 84 1 122 l-24 28 -260 3 -259 3 -32 -26z"/>
<path d="M789 1451 c-20 -20 -29 -39 -29 -61 0 -22 9 -41 29 -61 l29 -29 327
0 326 0 24 25 c19 18 25 35 25 65 0 30 -6 47 -25 65 l-24 25 -326 0 -327 0
-29 -29z"/>
</g>
</svg>
